<?xml version="1.0" encoding="utf-8"?>
<!-- Generator: Adobe Illustrator 24.1.2, SVG Export Plug-In . SVG Version: 6.00 Build 0)  -->
<svg version="1.1" id="Layer_1" xmlns="http://www.w3.org/2000/svg" xmlns:xlink="http://www.w3.org/1999/xlink" x="0px" y="0px"
	 viewBox="0 0 1366 768" style="enable-background:new 0 0 1366 768;" xml:space="preserve">
<style type="text/css">
	.st0{fill:#63638B;}
	.st1{fill:none;stroke:#000000;stroke-width:4;stroke-miterlimit:10;}
	.st2{stroke:#000000;stroke-miterlimit:10;}
</style>
<path class="st0" d="M824.94,158.17l-30.49,121.78c-9.04,36.11-60.35,36.14-69.43,0.04l-30.74-122.17
	c-5.71-22.69,11.54-44.67,34.94-44.53l61.23,0.39C813.64,113.83,830.57,135.67,824.94,158.17z"/>
<g>
	<path d="M602.72,525.35l-8.05,14.46c-15.79,28.36-58.15,22.75-66-8.75l-93.17-373.62c-5.63-22.59,11.45-44.45,34.73-44.45h11.6
		c16.43,0,30.75,11.19,34.73,27.13l89.62,359.15C608.37,508.1,607.14,517.42,602.72,525.35z"/>
</g>
<path d="M720.67,539.82l8.05-14.46c4.42-7.94,5.65-17.26,3.45-26.07l-89.62-359.15c-3.98-15.94-18.3-27.13-34.73-27.13h-11.6
	c-23.28,0-40.36,21.87-34.73,44.45l93.17,373.62C662.52,562.57,704.88,568.18,720.67,539.82z"/>
<path class="st1" d="M677,619"/>
<path d="M677,619"/>
<path class="st2" d="M424,113"/>
<path d="M550,619"/>
<path d="M736,513"/>
</svg>
