<svg xmlns="http://www.w3.org/2000/svg" viewBox="0 0 391.61 445.21"><defs><style>.cls-1{fill:#63638b;}.cls-2{fill:#fff;}</style></defs><g id="Layer_2" data-name="Layer 2"><g id="Layer_1-2" data-name="Layer 1"><path class="cls-1" d="M390.53,45.17,360,167c-9,36.11-60.35,36.14-69.43,0L259.87,44.82A35.79,35.79,0,0,1,294.81.29L356,.68A35.8,35.8,0,0,1,390.53,45.17Z"/><path class="cls-2" d="M168.31,412.35l-8.05,14.47c-15.79,28.36-58.15,22.75-66-8.75L1.08,44.45A35.79,35.79,0,0,1,35.81,0h11.6A35.8,35.8,0,0,1,82.14,27.13l89.62,359.15A35.81,35.81,0,0,1,168.31,412.35Z"/><path class="cls-2" d="M286.26,426.82l8.05-14.47a35.81,35.81,0,0,0,3.45-26.07L208.14,27.13A35.8,35.8,0,0,0,173.41,0h-11.6a35.79,35.79,0,0,0-34.73,44.45l93.17,373.62C228.11,449.57,270.47,455.18,286.26,426.82Z"/></g></g></svg>